<svg xmlns="http://www.w3.org/2000/svg" width="1920" height="1080" viewBox="0 0 1920 1080" role="img" aria-labelledby="title desc">
  <title id="title">Void Whisper obsidian chamber</title>
  <desc id="desc">An original black obsidian field with a violet eclipse, silver fractures and cold blue relic light.</desc>
  <defs>
    <linearGradient id="stone" x1="0" y1="0" x2="1" y2="1">
      <stop offset="0" stop-color="#07040c"/>
      <stop offset=".46" stop-color="#160b20"/>
      <stop offset="1" stop-color="#08050f"/>
    </linearGradient>
    <radialGradient id="void" cx="50%" cy="48%" r="52%">
      <stop offset="0" stop-color="#030107"/>
      <stop offset=".42" stop-color="#09020e"/>
      <stop offset=".68" stop-color="#4e2467" stop-opacity=".62"/>
      <stop offset=".84" stop-color="#8253a6" stop-opacity=".18"/>
      <stop offset="1" stop-color="#8253a6" stop-opacity="0"/>
    </radialGradient>
    <radialGradient id="cold" cx="50%" cy="50%" r="50%">
      <stop offset="0" stop-color="#759fe0" stop-opacity=".38"/>
      <stop offset="1" stop-color="#4f73ba" stop-opacity="0"/>
    </radialGradient>
    <linearGradient id="silver" x1="0" y1="0" x2="1" y2="0">
      <stop offset="0" stop-color="#9274a8" stop-opacity="0"/>
      <stop offset=".45" stop-color="#dfcaec" stop-opacity=".72"/>
      <stop offset=".55" stop-color="#9b79b4" stop-opacity=".72"/>
      <stop offset="1" stop-color="#9274a8" stop-opacity="0"/>
    </linearGradient>
    <pattern id="grain" width="92" height="92" patternUnits="userSpaceOnUse">
      <path d="M0 90 90 0M-24 68 68-24M24 116 116 24" stroke="#c4a8d8" stroke-opacity=".025" stroke-width="1"/>
    </pattern>
    <filter id="soft-glow" x="-60%" y="-60%" width="220%" height="220%">
      <feGaussianBlur stdDeviation="14" result="blur"/>
      <feMerge><feMergeNode in="blur"/><feMergeNode in="SourceGraphic"/></feMerge>
    </filter>
    <filter id="noise">
      <feTurbulence type="fractalNoise" baseFrequency=".62" numOctaves="3" seed="17"/>
      <feColorMatrix values="1 0 0 0 0 0 1 0 0 0 0 0 1 0 0 0 0 0 .065 0"/>
    </filter>
  </defs>
  <rect width="1920" height="1080" fill="url(#stone)"/>
  <rect width="1920" height="1080" fill="url(#grain)"/>
  <path d="M0 0h635L450 1080H0Z" fill="#05030a" fill-opacity=".58"/>
  <path d="M164 0h6l-72 1080h-6zM492 0h2L319 1080h-2z" fill="#bda0d3" fill-opacity=".09"/>
  <ellipse cx="1385" cy="390" rx="430" ry="430" fill="url(#void)"/>
  <ellipse cx="1385" cy="390" rx="202" ry="202" fill="#020105" stroke="#b899cf" stroke-opacity=".36" stroke-width="2"/>
  <ellipse cx="1385" cy="390" rx="246" ry="246" fill="none" stroke="#d5bfe5" stroke-opacity=".18" stroke-width="1.5" stroke-dasharray="2 20"/>
  <ellipse cx="1385" cy="390" rx="292" ry="292" fill="none" stroke="#6c4d82" stroke-opacity=".28"/>
  <g fill="none" stroke-linecap="round" stroke-linejoin="round">
    <path d="m1385 98-22 126 22 68 22-68-22-126Zm0 390-28 60 28 142 28-142-28-60Z" stroke="#d8c1e8" stroke-opacity=".48"/>
    <path d="m1090 390 126-22 70 22-70 22-126-22Zm390 0 72-22 128 22-128 22-72-22Z" stroke="#a987c0" stroke-opacity=".40"/>
    <path d="m1178 183 92 116-15 67-71-2-99-105m507-76-92 116 15 67 71-2 99-105" stroke="#74518e" stroke-opacity=".38"/>
    <path d="m1184 596 86-111-15-71-72 3-118 117m527 62-92-111 15-71 72 3 117 117" stroke="#8d69a6" stroke-opacity=".32"/>
  </g>
  <g filter="url(#soft-glow)">
    <circle cx="1385" cy="390" r="8" fill="#9cc4ff"/>
    <path d="M1385 376c-20 8-32 14-48 14 16 0 28 6 48 14 20-8 32-14 48-14-16 0-28-6-48-14Z" fill="#82aee9" fill-opacity=".78"/>
  </g>
  <path d="M777 0 612 308l86 88-149 180 77 102-202 402M965 0 884 221l45 62-122 175 62 84-142 219 66 97-91 222" fill="none" stroke="url(#silver)" stroke-width="2" stroke-opacity=".46"/>
  <path d="M0 866c282-124 514-128 762-50 215 68 430 59 620-20 175-72 341-77 538-4v288H0Z" fill="#07040c" fill-opacity=".54"/>
  <path d="M0 866c282-124 514-128 762-50 215 68 430 59 620-20 175-72 341-77 538-4" fill="none" stroke="#a280b9" stroke-opacity=".17"/>
  <ellipse cx="1010" cy="890" rx="520" ry="260" fill="url(#cold)" opacity=".30"/>
  <path d="M102 150h268m-268 22h164M1550 915h248m-248 22h114" stroke="#c8afd9" stroke-opacity=".17"/>
  <circle cx="102" cy="150" r="3" fill="#8fb7e8" fill-opacity=".64"/>
  <circle cx="1550" cy="915" r="3" fill="#bc91d5" fill-opacity=".64"/>
  <rect width="1920" height="1080" filter="url(#noise)" opacity=".72"/>
</svg>
